<svg class="uitk-icon uitk-field-icon" aria-hidden="true" viewBox="0 0 24 24" xmlns="http://www.w3.org/2000/svg" xmlns:xlink="http://www.w3.org/1999/xlink"><path d="M16.863 4.198A7.454 7.454 0 0 0 11.558 2c-2.004 0-3.888.781-5.354 2.248a7.48 7.48 0 0 0-.804 9.659l5.547 7.779a.752.752 0 0 0 1.222 0l5.546-7.779c2.137-2.997 1.798-7.059-.852-9.709Zm-.368 8.837-4.937 6.923-4.936-6.923c-1.708-2.396-1.438-5.646.69-7.777A5.967 5.967 0 0 1 11.559 3.5c1.604 0 3.11.625 4.293 1.808a5.984 5.984 0 0 1 .644 7.727Z"></path><path d="M11.558 6.564A2.99 2.99 0 0 0 8.57 9.552a2.99 2.99 0 0 0 2.988 2.987 2.99 2.99 0 0 0 2.987-2.987 2.99 2.99 0 0 0-2.987-2.988Zm0 4.475a1.49 1.49 0 0 1-1.488-1.487c0-.82.668-1.488 1.488-1.488s1.487.667 1.487 1.488-.667 1.487-1.487 1.487Z"></path></svg>