<svg class="uitk-icon uitk-field-icon" aria-hidden="true" viewBox="0 0 24 24" xmlns="http://www.w3.org/2000/svg" xmlns:xlink="http://www.w3.org/1999/xlink"><path d="M18.12 15.61h-2.5v2.5h2.5v-2.5zm-4.55 0h-2.5v2.5h2.5v-2.5zm-4.45 0h-2.5v2.5h2.5v-2.5zM7.96 7.86a.75.75 0 0 0-.75.75v2.65l-3.1-3.14a.75.75 0 1 0-1.07 1.06l3 3.03H3.62a.75.75 0 1 0 0 1.5h4.34a.75.75 0 0 0 .75-.75V8.6a.75.75 0 0 0-.75-.75z"></path><path d="M18.93 3.86h-1.56V2.61a.75.75 0 1 0-1.5 0v1.25h-7.5V2.61a.75.75 0 0 0-1.5 0v1.25H3.62a.75.75 0 0 0 0 1.5h15.31a.75.75 0 0 1 .75.75v1.75h-9.06a.75.75 0 1 0 0 1.5h9.06v10.5H5.12a.75.75 0 0 1-.75-.75V15.4a.75.75 0 1 0-1.5 0v3.72c0 1.24 1 2.25 2.25 2.25h15.31a.75.75 0 0 0 .75-.75V6.11a2.25 2.25 0 0 0-2.25-2.25z"></path><path d="M18.12 10.61h-2.5v2.5h2.5v-2.5zm-4.55 0h-2.5v2.5h2.5v-2.5z"></path></svg>