<svg class="uitk-icon uitk-icon-leading" aria-describedby="undefined-description" aria-label="Download the app button" role="img" viewBox="0 0 24 24" xmlns="http://www.w3.org/2000/svg" xmlns:xlink="http://www.w3.org/1999/xlink"><title id="undefined-title">Download the app button</title><desc id="undefined-description">Download the app button with download icon</desc><path d="M20.75 14.48a.75.75 0 0 0-.75.75v3.88c0 .42-.34.75-.75.75H4.75a.75.75 0 0 1-.75-.75v-3.88a.75.75 0 0 0-1.5 0v3.88c0 1.24 1 2.25 2.25 2.25h14.5a2.25 2.25 0 0 0 2.25-2.25v-3.88a.75.75 0 0 0-.75-.75z"></path><path d="M11.52 16.53a.75.75 0 0 0 .96 0l5.59-4.72a.75.75 0 0 0-.97-1.15l-4.35 3.68V3.11a.75.75 0 1 0-1.5 0v11.23L6.9 10.67a.75.75 0 0 0-.97 1.14l5.59 4.72z"></path></svg>