<svg viewBox="0 0 24 24"  xmlns="http://www.w3.org/2000/svg">
<path d="M19.0672 24.0105H4.9328C2.21344 24.0105 0 21.7971 0 19.0672V4.9328C0 2.21344 2.21344 0 4.9328 0H19.0672C21.7971 0 24 2.21344 24 4.9328V19.0672C24.0105 21.7971 21.7971 24.0105 19.0672 24.0105Z" fill="#0067DB"/>
<path fill-rule="evenodd" clip-rule="evenodd" d="M16.2481 12.4229V10.475L17.4891 10.3551L17.4923 12.2585L16.2481 12.4229ZM17.4891 14.7669L16.2481 14.9833V13.0409L17.4891 12.8637V14.7669ZM14.128 15.3579L14.1335 13.3309L15.6327 13.1293L15.643 15.0929L14.128 15.3579ZM6.51054 16.8949V15.8164L9.47757 15.3296C9.47757 15.3296 9.98914 15.3332 9.94829 14.7612C9.91212 14.2512 9.36955 14.3399 9.36955 14.3399L6.51054 14.7624V9.52935L9.53158 5.98371L12.8636 9.68757V18.0373L6.51054 16.8949ZM14.14 10.6785L15.6347 10.5396V12.5022L14.1296 12.6987L14.14 10.6785ZM15.534 5H8.64256L4.57612 9.77109L6.00968 9.67119V14.8332L4.91618 14.9924C4.91618 14.9924 4.38948 15.0901 4.52112 15.6463C4.63604 16.0524 5.05274 16.0524 5.05274 16.0524L6.00968 15.8975V17.2682L12.8636 18.5L18.2495 17.2794L18.2398 9.78013L19.715 9.64698L15.534 5Z" fill="white"/>
<path fill-rule="evenodd" clip-rule="evenodd" d="M9.56684 9.17493C10.0945 9.17493 10.5746 9.43281 10.9234 9.83705C11.2732 10.2412 11.4987 10.7946 11.5317 11.4116C11.5342 11.4631 11.5362 11.5142 11.5362 11.5647C11.5362 12.1647 11.3482 12.7152 11.0289 13.1286C10.7112 13.5415 10.2531 13.8203 9.72986 13.847C9.70242 13.8489 9.67388 13.8493 9.64607 13.8493C9.11876 13.8493 8.63795 13.5904 8.2899 13.1869C7.94049 12.7821 7.71399 12.229 7.68101 11.6116C7.67868 11.5608 7.67769 11.51 7.67769 11.4595C7.67769 10.8595 7.86507 10.3084 8.18372 9.89525C8.50176 9.48233 8.95956 9.20427 9.48306 9.17725C9.51049 9.1759 9.5394 9.17493 9.56684 9.17493ZM9.56684 9.55863C9.54543 9.55863 9.52415 9.55924 9.50274 9.56022C9.10769 9.58113 8.75409 9.78851 8.48982 10.1287C8.22715 10.4685 8.06278 10.939 8.06278 11.4595C8.06278 11.5029 8.06475 11.5473 8.06733 11.5917C8.0944 12.128 8.29248 12.6023 8.58234 12.9367C8.87282 13.272 9.24819 13.4653 9.64607 13.4653C9.66748 13.4653 9.68877 13.4646 9.71017 13.4638C10.1055 13.4428 10.4588 13.2357 10.7225 12.8955C10.9855 12.556 11.1505 12.085 11.1505 11.5647C11.1505 11.5203 11.1485 11.4769 11.146 11.4323C11.1188 10.8964 10.9208 10.4223 10.6303 10.0872C10.3397 9.75182 9.96448 9.55863 9.56684 9.55863ZM9.45648 10.0827C9.12393 10.3026 8.90592 10.882 8.94147 11.5515C8.97678 12.2281 9.26049 12.7875 9.62085 12.9653V12.9731C9.05011 13.0027 8.55318 12.3792 8.51049 11.5807C8.46842 10.7881 8.89127 10.122 9.45648 10.0827Z" fill="white"/>
</svg>
