<svg class="uitk-icon uitk-field-icon" aria-hidden="true" viewBox="0 0 24 24" xmlns="http://www.w3.org/2000/svg" xmlns:xlink="http://www.w3.org/1999/xlink"><path d="M21.808 18.724a10.132 10.132 0 0 0-.569-1.877 10.11 10.11 0 0 0-.924-1.729 10.177 10.177 0 0 0-1.244-1.516c-.46-.459-.97-.877-1.516-1.244-.293-.195-.6-.373-.913-.537a5.557 5.557 0 0 0 .954-3.12v-1.21a5.597 5.597 0 0 0-11.192 0v1.21a5.56 5.56 0 0 0 .954 3.12 9.977 9.977 0 0 0-.914.537 9.98 9.98 0 0 0-4.252 6.365c-.127.644-.192 1.3-.192 1.952a.75.75 0 1 0 1.5 0 8.515 8.515 0 0 1 3.778-7.068c.359-.24.741-.443 1.13-.625a5.585 5.585 0 0 0 7.187 0c.39.183.77.386 1.127.623.465.312.898.667 1.289 1.057a8.532 8.532 0 0 1 2.327 4.354c.108.545.163 1.104.163 1.658a.75.75 0 0 0 1.499.001c0-.654-.064-1.31-.192-1.95Zm-9.814-5.93a4.095 4.095 0 0 1-4.09-4.092v-1.21a4.097 4.097 0 0 1 8.192 0v1.21a4.098 4.098 0 0 1-4.102 4.091Z"></path></svg>