<?xml version="1.0" encoding="UTF-8" standalone="no"?>
<!-- Created with Inkscape (http://www.inkscape.org/) -->

<svg
   width="210mm"
   height="224mm"
   viewBox="0 0 210 224"
   version="1.1"
   id="svg14914"
   inkscape:version="1.1.2 (b8e25be833, 2022-02-05)"
   sodipodi:docname="VRBO-tea-mark.svg"
   xmlns:inkscape="http://www.inkscape.org/namespaces/inkscape"
   xmlns:sodipodi="http://sodipodi.sourceforge.net/DTD/sodipodi-0.dtd"
   xmlns="http://www.w3.org/2000/svg"
   xmlns:svg="http://www.w3.org/2000/svg">
  <sodipodi:namedview
     id="namedview14916"
     pagecolor="#ffffff"
     bordercolor="#111111"
     borderopacity="1"
     inkscape:pageshadow="0"
     inkscape:pageopacity="0"
     inkscape:pagecheckerboard="1"
     inkscape:document-units="px"
     showgrid="false"
     inkscape:zoom="0.26173516"
     inkscape:cx="555.90545"
     inkscape:cy="504.32659"
     inkscape:window-width="1920"
     inkscape:window-height="1017"
     inkscape:window-x="-8"
     inkscape:window-y="-8"
     inkscape:window-maximized="1"
     inkscape:current-layer="layer1"
     units="mm"
     height="296mm" />
  <defs
     id="defs14911" />
  <g
     inkscape:label="Layer 1"
     inkscape:groupmode="layer"
     id="layer1">
    <g
       id="g795"
       transform="matrix(6.1298793,0,0,6.1298793,131.64833,90.457454)"
       style="display:inline">
      <path
         d="m 0,0 h -1.76 c 0.16,0.48 0.32,0.8 0.32,1.29 v 6.4 c 0,0.48 0,0.96 -0.16,1.44 0,0.32 -0.16,0.8 -0.16,1.28 -0.16,0.32 -0.32,0.8 -0.48,1.29 -0.16,0.32 -0.32,0.8 -0.48,1.12 -0.32,0.48 -0.48,0.8 -0.8,1.12 -0.16,0.32 -0.48,0.8 -0.8,1.12 -0.32,0.32 -0.48,0.64 -0.96,0.8 -0.32,0.32 -0.64,0.64 -0.97,0.8 -0.32,0.32 -0.8,0.479999 -1.12,0.799999 -0.48,0.160002 -0.8,0.320002 -1.28,0.480002 C -8.97,18.1 -9.45,18.26 -9.93,18.26 c -0.32,0.16 -0.8,0.16 -1.28,0.32 -0.48,0 -0.8,0 -1.28,0 -0.48,0 -0.96,0 -1.28,-0.16 -0.49,0 -0.97,-0.16 -1.29,-0.16 -0.48,-0.16 -0.96,-0.319999 -1.28,-0.479999 0.8,0.799999 1.76,1.279998 2.73,1.76 0.96,0.479999 1.92,0.639999 3.04,0.799999 1.12,0.16 2.08,0.16 3.2,0 1.12,-0.16 2.09,-0.479999 3.05,-0.960001 C -3.2,19.059999 -2.4,18.42 -1.6,17.780001 -0.8,16.98 0,16.18 0.48,15.22 1.12,14.42 1.6,13.46 1.93,12.34 2.09,11.37 2.25,10.25 2.25,9.13 V 2.41 C 2.25,2.09 2.25,1.77 2.09,1.45 2.09,1.13 1.93,0.96 1.6,0.8 1.44,0.48 1.12,0.32 0.96,0.32 0.64,0.16 0.32,0 0,0 Z"
         style="fill:#cce1f8;fill-opacity:1;fill-rule:nonzero;stroke:none"
         id="path797" />
    </g>
    <g
       id="g799"
       transform="matrix(6.1298793,0,0,6.1298793,20.697517,90.457454)"
       style="display:inline">
      <path
         d="m 0,0 h 18.1 c 0.32,0 0.64,0.16 0.959999,0.32 0.16,0 0.480002,0.16 0.640002,0.48 0.33,0.16 0.49,0.33 0.49,0.65 C 20.35,1.77 20.35,2.09 20.35,2.41 v 6.72 c 0,0.8 0,1.44 -0.159999,2.24 -0.16,0.81 -0.33,1.45 -0.65,2.09 C 19.219999,14.26 18.9,14.9 18.42,15.38 18.1,16.02 17.620001,16.66 17.139999,17.139999 16.5,17.780001 16.02,18.1 15.38,18.58 14.74,19.059999 14.1,19.379999 13.46,19.700001 12.66,19.860001 12.01,20.18 11.21,20.34 10.57,20.5 9.77,20.5 9.13,20.5 h 0.16 c -0.96,0 -1.76,0 -2.4,-0.16 C 6.09,20.18 5.45,19.860001 4.65,19.700001 4,19.379999 3.36,19.059999 2.72,18.58 2.08,18.1 1.6,17.780001 1.12,17.139999 0.48,16.66 0,16.02 -0.32,15.54 -0.8,14.9 -1.12,14.26 -1.44,13.46 -1.76,12.82 -1.92,12.18 -2.08,11.37 -2.24,10.57 -2.24,9.93 -2.24,9.13 V 2.41 c 0,-0.32 0,-0.64 0.16,-0.96 C -1.92,1.13 -1.76,0.96 -1.6,0.8 -1.44,0.48 -1.12,0.32 -0.96,0.32 -0.64,0.16 -0.32,0 0,0 Z"
         style="fill:none;stroke:#364353;stroke-width:2.083;stroke-linecap:round;stroke-linejoin:round;stroke-miterlimit:10;stroke-dasharray:none;stroke-opacity:1"
         id="path801" />
    </g>
    <g
       id="g803"
       transform="matrix(6.1298793,0,0,6.1298793,145.44056,105.23047)"
       style="display:inline">
      <path
         d="m 0,0 h 2.4 c 0.32,0 0.8,0 1.28,0 0.48,0.16 0.8,0.32 1.28,0.48 0.32,0.16 0.8,0.32 1.12,0.64 0.48,0.16 0.8,0.48 1.12,0.8 0.33,0.32 0.49,0.64 0.81,1.12 0.16,0.32 0.48,0.64 0.64,1.12 0.16,0.32 0.32,0.8 0.32,1.28 0.16,0.48 0.16,0.8 0.16,1.28 0,0.48 0,0.96 -0.16,1.28 0,0.48 -0.16,0.96 -0.32,1.29 -0.16,0.48 -0.48,0.8 -0.64,1.28 -0.32,0.32 -0.48,0.64 -0.81,0.96 -0.32,0.32 -0.64,0.64 -1.12,0.8 -0.32,0.32 -0.8,0.48 -1.12,0.64 -0.48,0.16 -0.8,0.32 -1.28,0.48 -0.48,0 -0.96,0.16 -1.28,0.16 h -4.65"
         style="fill:none;stroke:#364353;stroke-width:2.083;stroke-linecap:round;stroke-linejoin:round;stroke-miterlimit:10;stroke-dasharray:none;stroke-opacity:1"
         id="path805" />
    </g>
    <g
       id="g807"
       style="display:inline"
       transform="matrix(6.1298793,0,0,6.1298793,-362.29733,-1776.7039)">
      <path
         d="m 70.330002,311.48999 v -6.88998"
         style="fill:none;stroke:#364353;stroke-width:2.083;stroke-linecap:round;stroke-linejoin:round;stroke-miterlimit:10;stroke-dasharray:none;stroke-opacity:1"
         id="path809" />
    </g>
    <g
       id="g811"
       style="display:inline"
       transform="matrix(6.1298793,0,0,6.1298793,-362.29733,-1776.7039)">
      <path
         d="m 79.459999,290.98999 c 2.239998,4.49002 -4.32,5.93002 -1.120003,10.25"
         style="fill:none;stroke:#364353;stroke-width:2.083;stroke-linecap:round;stroke-linejoin:round;stroke-miterlimit:10;stroke-dasharray:none;stroke-opacity:1"
         id="path813" />
    </g>
    <g
       id="g815"
       transform="matrix(6.1298793,0,0,6.1298793,-362.29733,-1776.7039)"
       style="display:inline">
      <path
         d="m 72.730003,290.98999 c 2.089997,4.49002 -4.480003,5.93002 -1.120002,10.25"
         style="fill:none;stroke:#364353;stroke-width:2.083;stroke-linecap:round;stroke-linejoin:round;stroke-miterlimit:10;stroke-dasharray:none;stroke-opacity:1"
         id="path817" />
    </g>
    <g
       id="g819"
       style="display:inline"
       transform="matrix(6.1298793,0,0,6.1298793,-362.29733,-1776.7039)">
      <path
         d="m 65.839996,290.98999 c 2.25,4.49002 -4.319996,5.93002 -1.119995,10.25"
         style="fill:none;stroke:#364353;stroke-width:2.083;stroke-linecap:round;stroke-linejoin:round;stroke-miterlimit:10;stroke-dasharray:none;stroke-opacity:1"
         id="path821" />
    </g>
    <g
       id="g823"
       transform="matrix(6.1298793,0,0,6.1298793,48.220676,137.59623)"
       style="display:inline">
      <path
         d="M 0,0 C 0,-0.32 0.16,-0.48 0.32,-0.64 0.48,-0.8 0.64,-0.8 0.8,-0.8 h 5.28 c 0.16,0 0.48,0 0.48,0.16 0.16,0.16 0.32,0.32 0.32,0.64 v 5.29 c 0,0.16 -0.16,0.32 -0.32,0.48 0,0.16 -0.32,0.16 -0.48,0.16 H 0.8 C 0.64,5.93 0.48,5.93 0.32,5.77 0.16,5.61 0,5.45 0,5.29 Z"
         style="fill:none;stroke:#364353;stroke-width:2.083;stroke-linecap:round;stroke-linejoin:round;stroke-miterlimit:10;stroke-dasharray:none;stroke-opacity:1"
         id="path825" />
    </g>
  </g>
</svg>
