<svg class="size" version="1.1" viewBox="0 0 37 37" xmlns="http://www.w3.org/2000/svg"><g fill="none" fill-rule="evenodd" stroke-width="1"><g transform="translate(-1026 -562)"><g transform="translate(0 520)"><g transform="translate(1024 40)"><polygon points="0.14062 40.714 40.141 40.714 40.141 0.71394 0.14062 0.71394" opacity=".8"></polygon><path d="m21.274 33.662c-1.893 5.629-16.509 5.187-18.134 0v-7.687c6.234 3.812 12.875 2.683 18.134 0v7.687z" fill="#CCE1F8"></path><path d="m12.207 28.659c5.008 0 9.067-2.03 9.067-4.533 0-2.504-4.059-4.534-9.067-4.534-5.007 0-9.066 2.03-9.066 4.534 0 2.503 4.059 4.533 9.066 4.533z" stroke="#364353" stroke-linecap="round" stroke-linejoin="round" stroke-width="2"></path><path d="m3.1406 24.125v9.066c0 2.504 4.059 4.534 9.066 4.534 5.008 0 9.068-2.03 9.068-4.534v-9.066" stroke="#364353" stroke-linecap="round" stroke-linejoin="round" stroke-width="2"></path><path d="m21.274 28.659c0 2.504-4.06 4.533-9.067 4.533-5.008 0-9.067-2.029-9.067-4.533" stroke="#364353" stroke-linecap="round" stroke-linejoin="round" stroke-width="2"></path><path d="m25.808 26.392h9.066c1.252 0 2.267-1.016 2.267-2.267v-18.133c0-1.252-1.015-2.267-2.267-2.267h-29.466c-1.252 0-2.267 1.015-2.267 2.267v11.343" stroke="#364353" stroke-linecap="round" stroke-linejoin="round" stroke-width="2"></path><path d="m15.607 15.058c0-2.088 1.427-3.906 3.455-4.402 2.028-0.497 4.134 0.457 5.099 2.308 0.965 1.853 0.54 4.124-1.031 5.502" stroke="#364353" stroke-linecap="round" stroke-linejoin="round" stroke-width="2"></path><path d="m8.8076 8.8245c0.312 0 0.566 0.254 0.566 0.567s-0.254 0.567-0.566 0.567c-0.313 0-0.567-0.254-0.567-0.567s0.254-0.567 0.567-0.567" stroke="#364353" stroke-linecap="round" stroke-linejoin="round" stroke-width="2"></path><path d="m31.474 20.159c0.313 0 0.567 0.254 0.567 0.566 0 0.313-0.254 0.567-0.567 0.567-0.312 0-0.566-0.254-0.566-0.567 0-0.312 0.254-0.566 0.566-0.566" stroke="#364353" stroke-linecap="round" stroke-linejoin="round" stroke-width="2"></path></g></g></g></g></svg>